<?xml version="1.0" standalone="no"?>
<!DOCTYPE svg PUBLIC "-//W3C//DTD SVG 20010904//EN"
 "http://www.w3.org/TR/2001/REC-SVG-20010904/DTD/svg10.dtd">
<svg version="1.0" xmlns="http://www.w3.org/2000/svg"
 width="338.000000pt" height="357.000000pt" viewBox="0 0 338.000000 357.000000"
 preserveAspectRatio="xMidYMid meet">

<g transform="translate(0.000000,357.000000) scale(0.100000,-0.100000)"
fill="#000000" stroke="none">
<path d="M2283 3350 c-42 -25 -48 -50 -48 -195 0 -146 10 -177 66 -199 l39
-16 0 -62 0 -63 -122 -60 c-154 -76 -229 -144 -273 -250 l-30 -70 -3 -266 -3
-265 27 -75 28 -74 4 -430 c3 -451 1 -489 -43 -605 -25 -66 -18 -327 11 -386
30 -62 68 -102 130 -134 46 -25 68 -30 125 -30 77 0 118 13 166 54 l33 27 32
-24 c64 -48 93 -57 182 -57 96 0 123 8 177 51 l38 30 53 -38 c51 -37 54 -38
143 -38 75 0 98 4 137 24 57 29 88 61 120 121 21 41 23 60 26 211 3 160 2 169
-22 227 l-26 61 0 471 0 471 26 61 25 61 -3 286 -4 286 -28 60 c-46 95 -129
169 -271 241 l-120 61 -3 61 c-3 53 0 63 15 68 83 27 93 50 93 211 0 141 -14
183 -66 203 -14 6 -150 10 -312 10 -268 0 -289 -1 -319 -20z m587 -195 l0
-105 -50 0 c-42 0 -50 3 -50 19 0 35 -22 80 -41 86 -11 4 -31 0 -44 -9 -20
-13 -25 -25 -25 -56 l0 -40 -55 0 -55 0 0 40 c0 31 -5 43 -25 56 -23 15 -27
15 -49 0 -18 -11 -26 -27 -28 -53 l-3 -38 -52 -3 -53 -3 0 105 0 106 265 0
265 0 0 -105z m-104 -302 c0 -63 4 -87 17 -101 10 -10 70 -45 135 -77 143 -71
212 -126 246 -200 26 -54 26 -55 26 -325 0 -262 -1 -272 -22 -313 -23 -41 -23
-48 -26 -479 l-3 -438 -459 0 c-447 0 -461 -1 -480 -20 -25 -25 -25 -45 0 -70
19 -19 33 -20 485 -20 413 0 465 -2 465 -15 0 -9 9 -35 20 -57 17 -36 20 -62
20 -195 0 -140 -2 -156 -22 -186 -36 -56 -78 -77 -152 -77 -63 0 -65 1 -119
50 -30 28 -64 50 -75 50 -11 0 -47 -22 -79 -50 l-58 -50 -80 0 -81 0 -53 50
c-33 31 -62 50 -77 50 -15 0 -45 -20 -79 -50 -53 -48 -57 -50 -116 -50 -77 0
-130 28 -158 86 -18 36 -21 60 -21 177 0 119 3 143 23 189 21 52 22 65 27 488
l5 435 461 5 c491 5 494 6 494 54 -1 53 17 51 -491 56 l-471 5 -24 65 c-24 63
-24 72 -22 325 3 242 4 263 25 307 34 75 97 126 248 202 74 38 140 76 145 86
6 10 10 55 10 100 l0 81 158 -3 157 -3 1 -82z"/>
<path d="M2306 1434 c-23 -22 -20 -60 6 -78 19 -13 60 -16 245 -16 210 0 224
1 243 20 24 24 25 38 4 68 -15 22 -19 22 -249 22 -199 0 -236 -2 -249 -16z"/>
<path d="M2320 1227 c-30 -15 -38 -58 -15 -81 14 -14 52 -16 305 -16 l288 0
16 25 c20 30 8 61 -29 75 -38 15 -535 12 -565 -3z"/>
<path d="M170 3300 c-27 -27 -25 -43 9 -82 26 -30 30 -44 40 -142 14 -143 14
-258 -1 -380 -12 -93 -11 -99 7 -112 21 -16 44 -18 63 -5 23 14 42 112 49 248
l6 133 19 -53 c27 -75 36 -111 48 -212 7 -56 17 -97 28 -108 23 -26 64 -18 80
16 22 45 -23 271 -84 422 -7 18 -6 18 20 -2 85 -67 149 -202 177 -372 10 -62
23 -81 54 -81 31 0 55 31 55 71 0 90 -79 298 -146 387 -60 79 -164 163 -244
199 -25 11 -65 36 -88 56 -50 42 -64 45 -92 17z"/>
<path d="M915 3145 c-65 -34 -65 -32 -65 -306 l0 -249 25 -12 c19 -8 31 -8 50
0 l25 11 2 228 3 228 318 3 317 2 0 -212 c0 -233 6 -261 51 -266 56 -6 59 8
59 254 l0 225 53 -3 52 -3 3 -197 c2 -195 3 -198 26 -213 23 -16 54 -11 68 9
4 6 8 106 8 221 0 232 -3 246 -60 276 -32 18 -65 19 -470 19 -370 0 -439 -2
-465 -15z"/>
<path d="M120 2500 c-20 -20 -20 -21 -18 -1078 l3 -1057 23 -45 c32 -60 63
-92 120 -121 l47 -24 765 -2 c421 -2 770 0 777 5 20 13 25 55 9 77 -14 20 -29
20 -773 25 -846 6 -792 1 -841 76 -21 32 -22 43 -22 244 l0 210 814 2 c448 2
817 5 819 8 3 3 8 17 12 32 5 19 1 32 -14 47 -21 21 -23 21 -826 21 l-805 0 0
699 0 699 38 -5 c32 -4 41 0 71 31 19 20 40 36 46 36 6 0 26 -16 45 -35 23
-24 43 -35 62 -35 20 0 41 12 65 35 20 19 38 35 41 35 2 0 22 -16 43 -35 25
-22 49 -35 67 -35 19 0 39 11 62 35 19 19 38 35 42 35 5 0 25 -16 45 -35 47
-46 79 -46 126 0 20 19 40 35 45 35 4 0 23 -16 42 -35 23 -24 43 -35 62 -35
18 0 42 13 67 35 21 19 41 35 43 35 3 0 21 -16 41 -35 48 -47 82 -47 127 0 19
19 39 35 45 35 6 0 26 -16 45 -35 23 -23 43 -35 62 -35 18 0 39 12 62 35 20
19 39 35 44 35 4 0 23 -16 42 -35 50 -52 110 -47 110 9 0 27 -12 44 -69 99
-38 37 -76 67 -85 67 -9 0 -36 -19 -60 -43 l-43 -43 -46 43 c-25 24 -53 43
-62 43 -8 0 -35 -18 -59 -40 -24 -22 -47 -40 -52 -40 -5 0 -25 16 -43 35 -53
53 -67 53 -115 6 -23 -23 -46 -41 -50 -41 -5 0 -28 18 -52 40 -24 22 -50 40
-59 40 -8 0 -34 -18 -57 -40 -24 -22 -45 -40 -48 -40 -3 0 -24 18 -48 40 -23
22 -49 40 -57 40 -9 0 -35 -18 -59 -40 -24 -22 -47 -40 -52 -40 -4 0 -27 18
-50 41 -48 47 -62 47 -115 -6 -18 -19 -38 -35 -43 -35 -5 0 -28 18 -52 40 -24
22 -51 40 -59 40 -9 0 -37 -20 -62 -43 l-46 -44 -36 37 c-48 49 -74 57 -101
30z"/>
</g>
</svg>
