<?xml version="1.0" standalone="no"?>
<!DOCTYPE svg PUBLIC "-//W3C//DTD SVG 20010904//EN"
 "http://www.w3.org/TR/2001/REC-SVG-20010904/DTD/svg10.dtd">
<svg version="1.0" xmlns="http://www.w3.org/2000/svg"
 width="321.000000pt" height="345.000000pt" viewBox="0 0 321.000000 345.000000"
 preserveAspectRatio="xMidYMid meet">

<g transform="translate(0.000000,345.000000) scale(0.100000,-0.100000)"
fill="#000000" stroke="none">
<path d="M446 3350 c-105 -32 -140 -176 -96 -390 11 -52 20 -96 20 -96 0 -1
-47 -5 -105 -9 -126 -8 -137 -16 -109 -77 10 -24 44 -68 74 -99 75 -76 144
-103 253 -97 l78 5 -6 -26 c-48 -188 -2 -335 155 -494 47 -48 84 -90 81 -92
-2 -3 -32 -5 -65 -5 -63 0 -307 -26 -339 -36 -10 -3 -39 -6 -65 -6 -54 1 -125
-28 -164 -65 -14 -14 -38 -52 -54 -86 -23 -52 -27 -75 -27 -156 -1 -102 16
-192 39 -212 7 -6 49 -15 91 -20 56 -6 82 -14 91 -26 17 -23 110 -216 129
-268 8 -22 25 -74 38 -115 125 -405 184 -571 213 -603 24 -27 130 -79 236
-116 344 -121 899 -131 1391 -25 66 14 139 28 163 31 29 4 48 13 57 27 43 66
135 374 240 801 l66 270 68 28 c88 35 143 84 178 155 38 78 38 175 -1 282 -15
41 -28 88 -30 104 -3 35 -24 51 -96 73 -30 9 -57 18 -59 20 -2 1 13 21 34 44
50 55 86 137 92 209 11 118 -34 198 -141 252 -90 45 -96 52 -96 117 0 96 -48
157 -131 168 -54 7 -79 19 -79 39 0 8 -12 40 -27 70 -30 61 -96 128 -148 150
-54 22 -145 18 -221 -11 -75 -28 -96 -30 -210 -13 -72 10 -87 10 -128 -6 -53
-20 -86 -62 -108 -136 l-13 -45 -3 48 c-2 35 -9 51 -25 62 -58 38 -245 57
-332 35 -73 -19 -123 -41 -129 -56 -3 -8 3 -103 14 -211 11 -108 20 -203 20
-211 0 -8 -20 10 -45 40 -97 119 -229 197 -344 206 l-66 4 -1 122 c0 186 -44
311 -139 394 -62 55 -144 74 -219 52z m172 -98 c64 -46 100 -166 111 -370 l6
-123 -41 -24 c-23 -13 -56 -41 -74 -61 -32 -37 -33 -37 -107 -37 -62 1 -84 6
-138 32 -65 32 -130 94 -119 113 5 7 37 9 95 5 116 -7 119 -4 83 105 -35 111
-45 267 -19 322 10 20 29 43 44 52 37 21 120 13 159 -14z m1768 -271 c50 -23
80 -62 95 -127 6 -27 14 -62 18 -79 5 -23 14 -31 39 -37 18 -4 46 -11 63 -16
51 -12 73 -51 79 -140 6 -85 10 -91 99 -113 26 -6 59 -25 85 -49 40 -38 41
-40 41 -107 -1 -74 -10 -97 -78 -201 l-42 -63 -55 6 c-30 3 -70 9 -87 12 l-33
5 35 41 c80 94 103 195 65 285 -48 111 -147 153 -276 116 -18 -5 -25 2 -43 40
-31 64 -57 94 -102 116 -67 34 -119 21 -191 -48 -21 -20 -39 -34 -41 -31 -2 2
-11 23 -21 46 -65 149 -203 145 -308 -7 -16 -24 -17 -22 -17 72 -1 81 1 96 13
92 10 -4 23 11 42 48 33 67 50 85 96 109 48 24 94 24 162 -2 52 -19 57 -19 87
-3 106 54 205 67 275 35z m-839 -51 c18 -10 42 -39 55 -62 20 -39 23 -57 23
-188 0 -80 -6 -239 -13 -355 -7 -115 -15 -316 -18 -446 l-6 -236 -89 1 -89 1
0 106 c0 194 -21 472 -51 674 -36 243 -47 406 -30 457 10 30 20 39 54 52 60
21 126 20 164 -4z m-557 -275 c31 -15 81 -55 115 -90 70 -73 163 -218 175
-272 9 -43 33 -294 28 -298 -2 -2 -94 -7 -205 -11 l-202 -7 -43 38 c-79 71
-148 159 -191 245 -39 80 -42 90 -42 170 0 68 5 93 22 125 27 50 77 99 123
120 53 24 151 15 220 -20z m958 -24 c16 -22 37 -65 46 -95 28 -88 44 -90 119
-12 73 76 109 94 143 71 27 -17 53 -65 78 -142 20 -61 33 -66 99 -41 120 45
197 3 197 -107 0 -62 -17 -89 -107 -172 -59 -56 -71 -63 -107 -63 -54 0 -321
-26 -523 -50 -89 -11 -169 -20 -178 -20 -15 0 -16 18 -12 178 6 256 35 376
112 458 25 27 40 34 69 34 30 0 40 -6 64 -39z m47 -701 c188 -9 814 -30 916
-30 l46 0 12 -103 c37 -329 -96 -390 -708 -322 -269 30 -498 32 -831 9 -277
-19 -1167 -17 -1212 3 -39 18 -52 49 -51 128 0 77 15 122 64 190 l31 43 462 5
c368 3 474 7 526 19 36 9 67 12 70 7 3 -4 14 -81 24 -171 10 -90 21 -169 23
-175 9 -22 43 -15 43 8 0 15 4 19 16 15 9 -3 63 -14 122 -23 l105 -16 19 23
c16 20 18 43 18 217 l0 195 53 -6 c28 -3 142 -10 252 -16z m-680 -565 c612 -1
920 -5 1040 -14 94 -8 224 -11 291 -9 l121 5 -59 -151 c-57 -145 -248 -709
-263 -774 -3 -18 -11 -32 -17 -32 -5 0 -82 -9 -171 -19 -89 -11 -236 -25 -326
-32 -208 -15 -692 -6 -851 15 -179 25 -304 48 -316 60 -16 15 -63 163 -124
391 -82 302 -141 436 -233 534 l-42 43 40 -8 c22 -4 432 -8 910 -9z"/>
<path d="M793 2418 c-54 -85 -87 -191 -66 -211 10 -10 33 13 33 33 0 10 21 59
46 109 42 84 47 111 24 111 -6 0 -22 -19 -37 -42z"/>
<path d="M945 2318 c-84 -60 -126 -117 -139 -189 -5 -26 -2 -40 9 -49 19 -16
45 3 45 32 0 36 39 96 96 146 40 35 55 54 51 66 -8 21 -26 20 -62 -6z"/>
<path d="M1021 2126 c-46 -28 -84 -55 -85 -61 -2 -21 36 -15 93 15 66 35 107
73 96 89 -9 15 -11 15 -104 -43z"/>
<path d="M2321 1206 l-84 -85 -46 38 c-126 103 -173 122 -178 71 -2 -20 11
-36 73 -85 42 -33 81 -66 86 -73 13 -15 -20 -52 -135 -154 l-67 -60 -93 83
c-50 46 -96 87 -101 91 -6 5 2 20 18 37 46 48 18 82 -34 41 -14 -11 -30 -20
-36 -20 -6 0 -52 36 -102 80 -87 78 -124 95 -136 65 -3 -9 27 -46 87 -104 90
-88 91 -91 71 -105 -12 -8 -62 -49 -112 -91 -59 -49 -96 -74 -104 -69 -7 5
-62 49 -121 98 l-109 91 34 28 c18 15 59 45 90 65 61 39 68 49 43 58 -21 8
-61 -10 -141 -62 -37 -24 -72 -44 -77 -44 -6 0 -62 39 -124 86 -118 89 -149
104 -146 69 1 -14 -11 -28 -39 -45 -71 -44 -119 -130 -72 -130 8 0 29 16 46
36 30 34 94 74 120 74 7 0 47 -31 88 -70 l75 -69 -100 -95 c-55 -52 -103 -95
-107 -96 -5 0 -25 16 -47 35 -21 19 -41 35 -45 35 -14 0 -4 -24 28 -63 28 -34
32 -46 24 -61 -14 -25 5 -44 26 -26 13 10 30 -3 113 -90 54 -56 99 -105 101
-109 1 -3 -18 -18 -43 -33 -25 -15 -45 -32 -45 -38 0 -17 43 -10 89 14 l44 23
65 -49 c51 -39 67 -46 78 -37 23 19 16 36 -31 75 -25 20 -44 40 -43 44 2 4 50
43 108 87 l106 80 79 -74 c87 -80 87 -83 13 -103 -42 -12 -52 -40 -15 -40 13
0 47 7 76 16 l52 15 52 -43 c143 -120 197 -148 211 -111 5 12 -17 41 -81 105
-48 48 -85 89 -82 91 2 3 24 15 49 27 25 12 80 46 122 75 l77 53 71 -65 c70
-65 70 -66 55 -90 -30 -45 4 -73 39 -34 17 19 19 18 98 -35 44 -30 88 -54 97
-52 36 7 23 41 -45 109 l-67 68 67 71 c70 74 83 112 41 118 -14 2 -38 -19 -84
-73 -35 -41 -67 -75 -70 -75 -10 0 -131 100 -131 108 0 4 47 51 103 104 l104
97 64 -65 c35 -35 66 -64 69 -64 4 0 15 6 25 14 17 13 18 17 6 40 -8 14 -36
50 -63 81 l-50 55 72 85 c51 61 71 91 68 107 -6 42 -32 29 -117 -56z m-1066
-306 l109 -110 -44 -37 c-24 -21 -71 -59 -104 -85 -59 -46 -61 -47 -81 -30
-94 83 -192 167 -199 174 -5 4 -3 14 5 24 18 23 192 174 199 174 3 0 55 -49
115 -110z m556 9 c54 -51 99 -95 99 -99 0 -9 -139 -111 -195 -145 l-41 -24
-89 82 c-50 44 -90 84 -90 88 0 6 206 188 213 189 2 0 48 -41 103 -91z"/>
</g>
</svg>
