<?xml version="1.0" standalone="no"?>
<!DOCTYPE svg PUBLIC "-//W3C//DTD SVG 20010904//EN"
 "http://www.w3.org/TR/2001/REC-SVG-20010904/DTD/svg10.dtd">
<svg version="1.0" xmlns="http://www.w3.org/2000/svg"
 width="740.000000pt" height="740.000000pt" viewBox="0 0 740.000000 740.000000"
 preserveAspectRatio="xMidYMid meet">

<g transform="translate(0.000000,740.000000) scale(0.100000,-0.100000)"
fill="#000000" stroke="none">
<path d="M6705 7385 c-84 -18 -149 -42 -230 -83 -148 -74 -249 -157 -341 -278
-104 -139 -168 -279 -240 -523 -68 -234 -110 -307 -261 -460 l-122 -123 -28
20 c-15 11 -77 71 -138 132 -213 217 -245 220 -432 48 -37 -35 -113 -104 -168
-153 -55 -50 -228 -216 -385 -370 -157 -154 -375 -361 -485 -460 -523 -472
-1141 -1090 -1615 -1615 -102 -113 -309 -331 -460 -485 -151 -154 -315 -325
-365 -380 -49 -55 -118 -131 -153 -168 -171 -185 -168 -221 38 -422 56 -55
116 -117 132 -138 l30 -38 -123 -123 c-115 -114 -132 -127 -229 -175 -59 -28
-160 -66 -230 -86 -363 -102 -584 -239 -729 -454 -54 -80 -124 -227 -146 -306
-78 -294 32 -541 300 -670 299 -145 621 -75 897 193 144 140 238 305 282 495
15 62 38 162 52 222 37 157 78 232 203 370 57 63 107 115 110 115 4 0 54 -43
111 -96 185 -170 248 -198 357 -162 77 26 199 108 302 204 46 43 179 182 296
309 116 126 315 338 440 470 287 301 582 618 749 804 71 78 195 202 275 274
188 170 400 367 626 582 308 292 534 504 706 662 207 189 316 305 384 408 67
102 87 148 86 208 0 82 -26 122 -216 333 l-60 67 50 44 c201 181 213 189 296
222 45 18 152 48 238 67 206 45 252 59 335 101 326 164 556 492 556 794 0 179
-73 362 -193 484 -40 40 -95 84 -124 99 -107 53 -251 69 -378 41z m260 -196
c101 -38 203 -172 235 -308 19 -81 8 -221 -23 -304 -75 -194 -257 -378 -462
-464 -27 -12 -117 -35 -200 -53 -209 -44 -354 -94 -437 -149 -37 -25 -116 -92
-176 -148 l-109 -102 -72 66 -71 65 108 106 c171 168 234 278 317 552 82 272
141 390 258 516 180 193 453 290 632 223z m-1545 -1443 c160 -141 538 -518
576 -575 l26 -40 -25 -43 c-75 -128 -156 -215 -467 -501 -102 -94 -345 -321
-540 -506 -195 -185 -384 -363 -420 -397 -36 -34 -151 -140 -257 -235 -113
-103 -262 -252 -363 -364 -95 -104 -200 -219 -234 -255 -34 -36 -212 -225
-397 -420 -185 -195 -412 -438 -506 -540 -244 -265 -345 -363 -446 -431 -48
-32 -92 -59 -96 -59 -38 0 -363 317 -616 600 -106 118 -215 237 -243 264 l-51
49 122 136 c67 74 244 260 392 411 149 152 364 379 479 505 522 575 1091 1144
1651 1655 154 140 392 366 530 501 137 136 322 312 410 392 l160 145 90 -87
c50 -48 151 -140 225 -205z m-3781 -4246 c-55 -59 -116 -129 -136 -156 -67
-94 -112 -220 -163 -459 -37 -174 -47 -203 -109 -309 -87 -150 -253 -293 -408
-353 -83 -31 -223 -42 -304 -23 -78 18 -185 77 -240 132 -69 69 -92 137 -86
253 8 155 80 313 200 442 125 134 265 209 556 298 285 87 384 145 551 317
l105 108 67 -71 67 -72 -100 -107z"/>
</g>
</svg>
